:SAMPLES-PER-SECOND 30
:FULLY-SPECIFIED
:DEGREES
1
root  82.6284 40.3786 -2.61872 177.343 -87.0885 -179.64
RightUpLeg  0.352968 -7.78788 -4.06894
RightLeg  3.68218 -8.41809 3.90717
RightFoot  -1.07434 0.185768 -2.21318
RightToes  0.00048216 0.542163 -0.142577
Spine  4.71745 -0.0147847 1.54038
Spine1  2.91652 0.304593 -1.26198
HEad  4.51709 -1.11377 0.797832
LeftShoulder1  0.643217 0.0311614 -11.1578
LeftArm  -22.9252 4.03469 -3.88451
LeftForeArm  -2.11886 1.81741 -0.066693
LeftHand  -0.25398 0.0180481 5.50724
RightShoulder  0.446945 -0.975368 10.4242
RightArm  -19.635 -0.843703 3.54294
RightForeArm  2.86353 0.156821 3.11234
RightHand  -1.83192 7.48943 -16.8262
LeftUpLeg  -0.0787292 5.05971 2.84555
LeftLeg  4.0491 12.0849 -3.30461
LeftFoot  -2.82703 0.00531974 0.252831
LeftToes  1.06249e-005 4.65856e-005 -8.18498e-006
2
root  82.6181 40.3786 -2.60446 178.031 -87.1253 179.64
RightUpLeg  0.407852 -7.85596 -4.15331
RightLeg  3.68289 -8.38756 3.92753
RightFoot  -1.10794 0.186499 -2.22456
RightToes  0.00048216 0.542163 -0.142577
Spine  4.59684 -0.0330686 1.4947
Spine1  3.10134 0.270531 -1.18813
HEad  4.54399 -1.12766 0.675661
LeftShoulder1  0.660628 -0.0339604 -11.3279
LeftArm  -22.9783 4.07124 -3.77381
LeftForeArm  -2.11406 1.84475 -0.0284767
LeftHand  -0.25398 0.0180481 5.50724
RightShoulder  0.452488 -0.931223 10.3276
RightArm  -19.7203 -0.838582 3.60807
RightForeArm  2.69534 0.140041 3.09492
RightHand  -1.81187 7.35611 -16.8139
LeftUpLeg  0.000171744 5.03559 2.78468
LeftLeg  3.98066 12.0812 -3.33418
LeftFoot  -2.7942 -0.000549129 0.344039
LeftToes  1.06249e-005 4.65856e-005 -8.18498e-006
3
root  82.6012 40.3786 -2.58431 178.819 -87.1234 178.806
RightUpLeg  0.481701 -7.89019 -4.23107
RightLeg  3.68197 -8.35446 3.90403
RightFoot  -1.13014 0.183611 -2.17961
RightToes  0.00048216 0.542163 -0.142577
Spine  4.50822 -0.0445345 1.45444
Spine1  3.24621 0.248183 -1.13519
HEad  4.60551 -0.991747 0.533522
LeftShoulder1  0.682474 -0.116191 -11.5304
LeftArm  -22.9642 4.16396 -3.59461
LeftForeArm  -2.20409 1.86597 -0.0132302
LeftHand  -0.25398 0.0180481 5.50724
RightShoulder  0.471496 -0.811315 10.2416
RightArm  -19.8056 -0.899381 3.64573
RightForeArm  2.58636 0.130727 3.07024
RightHand  -1.80347 7.32673 -16.7757
LeftUpLeg  0.119015 5.03213 2.7305
LeftLeg  3.89508 12.0734 -3.39579
LeftFoot  -2.77324 -0.00560869 0.42267
LeftToes  1.06249e-005 4.65856e-005 -8.18498e-006
4
root  82.5869 40.3785 -2.56896 178.858 -87.0739 178.743
RightUpLeg  0.525041 -7.84045 -4.22706
RightLeg  3.66893 -8.369 3.83313
RightFoot  -1.12273 0.178974 -2.10746
RightToes  0.00048216 0.542163 -0.142577
Spine  4.55427 -0.0244372 1.4811
Spine1  3.15255 0.280757 -1.1913
HEad  4.70807 -0.763584 0.463596
LeftShoulder1  0.699056 -0.19467 -11.5884
LeftArm  -22.9089 4.27312 -3.46746
LeftForeArm  -2.20581 1.87818 -0.0146618
LeftHand  -0.25398 0.0180481 5.50724
RightShoulder  0.496876 -0.681839 10.3491
RightArm  -19.7529 -1.00452 3.49205
RightForeArm  2.52572 0.137454 3.07965
RightHand  -1.81585 7.3945 -16.8016
LeftUpLeg  0.19814 5.06656 2.73966
LeftLeg  3.84883 12.0645 -3.45751
LeftFoot  -2.78884 -0.00373122 0.393492
LeftToes  1.06249e-005 4.65856e-005 -8.18498e-006
5
root  82.5782 40.3785 -2.55751 178.268 -87.0358 179.344
RightUpLeg  0.539083 -7.77493 -4.1812
RightLeg  3.62598 -8.39539 3.78437
RightFoot  -1.11205 0.17729 -2.08126
RightToes  0.00048216 0.542163 -0.142577
Spine  4.63189 0.0163621 1.53422
Spine1  2.96276 0.338167 -1.27081
HEad  4.83345 -0.624156 0.414245
LeftShoulder1  0.710664 -0.265267 -11.5419
LeftArm  -22.9455 4.3246 -3.43537
LeftForeArm  -2.01233 1.9249 0.0245494
LeftHand  -0.25398 0.0180481 5.50724
RightShoulder  0.517578 -0.596862 10.57
RightArm  -19.6657 -1.08564 3.21136
RightForeArm  2.43626 0.105437 3.09354
RightHand  -1.83689 7.44952 -16.9195
LeftUpLeg  0.214127 5.12999 2.79039
LeftLeg  3.83898 12.0422 -3.51762
LeftFoot  -2.80794 -0.00344496 0.389043
LeftToes  1.06249e-005 4.65856e-005 -8.18498e-006
6
root  82.5731 40.3783 -2.54715 177.287 -87.0142 -179.638
RightUpLeg  0.53099 -7.72301 -4.11961
RightLeg  3.55877 -8.41074 3.775
RightFoot  -1.08812 0.177508 -2.08466
RightToes  0.00048216 0.542163 -0.142577
Spine  4.64832 0.065951 1.54611
Spine1  2.85448 0.379281 -1.2336
HEad  4.89874 -0.622966 0.350051
LeftShoulder1  0.717301 -0.304051 -11.5247
LeftArm  -23.0548 4.29705 -3.43944
LeftForeArm  -1.85905 2.01028 0.0889234
LeftHand  -0.25398 0.0180481 5.50724
RightShoulder  0.528921 -0.548689 10.674
RightArm  -19.6609 -1.1486 2.99606
RightForeArm  2.39504 0.0440701 3.07962
RightHand  -1.86262 7.56055 -17.0081
LeftUpLeg  0.170601 5.22074 2.86405
LeftLeg  3.87821 11.9825 -3.57846
LeftFoot  -2.8382 -0.00961759 0.484973
LeftToes  1.06249e-005 4.65856e-005 -8.18498e-006
7
root  82.5681 40.3775 -2.5369 175.972 -86.9718 -178.263
RightUpLeg  0.477842 -7.65039 -4.0287
RightLeg  3.53483 -8.44979 3.75073
RightFoot  -1.05331 0.174926 -2.04448
RightToes  0.00048216 0.542163 -0.142577
Spine  4.64169 0.118824 1.52681
Spine1  2.78553 0.401596 -1.09067
HEad  4.85761 -0.678995 0.311986
LeftShoulder1  0.71852 -0.302987 -11.5656
LeftArm  -23.0863 4.26874 -3.40691
LeftForeArm  -2.00793 2.06256 0.106884
LeftHand  -0.25398 0.0180481 5.50724
RightShoulder  0.530486 -0.532013 10.621
RightArm  -19.6321 -1.20164 2.8972
RightForeArm  2.37141 0.0371718 3.08787
RightHand  -1.8823 7.71666 -16.9868
LeftUpLeg  0.0760683 5.30968 2.94945
LeftLeg  3.98515 11.9211 -3.59968
LeftFoot  -2.93254 -0.0113067 0.511224
LeftToes  1.06249e-005 4.65856e-005 -8.18498e-006
8
root  82.5592 40.375 -2.52338 175.028 -86.921 -177.26
RightUpLeg  0.377272 -7.59872 -3.97406
RightLeg  3.63336 -8.45481 3.71118
RightFoot  -1.09347 0.167801 -1.9556
RightToes  0.00048216 0.542163 -0.142577
Spine  4.67055 0.153963 1.51594
Spine1  2.65555 0.411836 -0.978658
HEad  4.80355 -0.716425 0.309487
LeftShoulder1  0.718785 -0.292237 -11.6313
LeftArm  -22.9911 4.30861 -3.30527
LeftForeArm  -2.34392 2.03192 0.0623154
LeftHand  -0.25398 0.0180481 5.50724
RightShoulder  0.524304 -0.552085 10.5532
RightArm  -19.4976 -1.19285 2.83797
RightForeArm  2.15194 0.0782134 3.15363
RightHand  -1.87396 7.67932 -16.9603
LeftUpLeg  -0.0325735 5.32616 2.9785
LeftLeg  4.12887 11.9374 -3.538
LeftFoot  -3.09157 -0.00143386 0.357788
LeftToes  1.06249e-005 4.65856e-005 -8.18498e-006
9
root  82.5447 40.3687 -2.50195 175.641 -86.9103 -177.862
RightUpLeg  0.297206 -7.69382 -4.09224
RightLeg  3.85293 -8.27467 3.73971
RightFoot  -1.27234 0.155268 -1.85948
RightToes  0.00048216 0.542163 -0.142577
Spine  4.72908 0.158976 1.48279
Spine1  2.52699 0.406818 -0.941685
HEad  4.83203 -0.737432 0.287613
LeftShoulder1  0.728447 -0.31536 -11.7838
LeftArm  -22.8624 4.35761 -3.11626
LeftForeArm  -2.527 1.97453 0.00605571
LeftHand  -0.25398 0.0180481 5.50724
RightShoulder  0.521924 -0.561235 10.4939
RightArm  -19.4251 -1.14628 2.81219
RightForeArm  1.74692 0.0708046 3.20001
RightHand  -1.84155 7.37523 -17.0545
LeftUpLeg  -0.092001 5.23775 2.86735
LeftLeg  4.27896 12.0626 -3.41973
LeftFoot  -3.27063 0.00763569 0.216839
LeftToes  1.06249e-005 4.65856e-005 -8.18498e-006
10
root  82.5281 40.3578 -2.47188 177.839 -86.9226 179.874
RightUpLeg  0.287932 -7.95167 -4.39496
RightLeg  4.13714 -7.91311 3.85814
RightFoot  -1.53931 0.13719 -1.7208
RightToes  0.00048216 0.542163 -0.142577
Spine  4.76863 0.160295 1.42242
Spine1  2.55634 0.410073 -0.950899
HEad  4.83995 -0.800801 0.256959
LeftShoulder1  0.751577 -0.386831 -12.0557
LeftArm  -22.7837 4.32929 -2.89387
LeftForeArm  -2.47497 1.94061 -0.0307338
LeftHand  -0.25398 0.0180481 5.50724
RightShoulder  0.529969 -0.497886 10.3774
RightArm  -19.542 -1.17798 2.85684
RightForeArm  1.47103 0.0391575 3.16214
RightHand  -1.81766 7.06789 -17.234
LeftUpLeg  -0.097065 5.11509 2.64068
LeftLeg  4.49073 12.2314 -3.29715
LeftFoot  -3.49094 0.00356405 0.280116
LeftToes  1.06249e-005 4.65856e-005 -8.18498e-006
11
root  82.513 40.3441 -2.43303 -179.982 -86.8777 177.617
RightUpLeg  0.277488 -8.22169 -4.72454
RightLeg  4.46235 -7.5274 3.97271
RightFoot  -1.86339 0.107964 -1.45385
RightToes  0.00048216 0.542163 -0.142577
Spine  4.69761 0.188723 1.47499
Spine1  2.83112 0.477549 -1.11345
HEad  4.68306 -0.911126 0.297111
LeftShoulder1  0.770787 -0.457385 -12.2143
LeftArm  -22.8291 4.27358 -2.8921
LeftForeArm  -2.37282 1.84829 -0.0360118
LeftHand  -0.25398 0.0180481 5.50724
RightShoulder  0.542203 -0.424781 10.3544
RightArm  -19.7283 -1.22998 2.91912
RightForeArm  1.40418 0.136253 3.10801
RightHand  -1.81849 6.93994 -17.4109
LeftUpLeg  -0.138974 5.04619 2.40709
LeftLeg  4.83516 12.4056 -3.15763
LeftFoot  -3.82889 -0.00643095 0.452369
LeftToes  1.06249e-005 4.65856e-005 -8.18498e-006
12
root  82.4938 40.3272 -2.38135 -178.983 -86.7272 176.615
RightUpLeg  0.165494 -8.40404 -4.97054
RightLeg  4.8244 -7.10797 4.02015
RightFoot  -2.29882 0.0676098 -1.05116
RightToes  0.00048216 0.542163 -0.142577
Spine  4.58198 0.230445 1.64779
Spine1  3.07799 0.577825 -1.37407
HEad  4.60074 -0.846802 0.270258
LeftShoulder1  0.772731 -0.455725 -12.277
LeftArm  -23.0669 4.38967 -3.17651
LeftForeArm  -2.1882 1.51787 0.0214048
LeftHand  -0.25398 0.0180481 5.50724
RightShoulder  0.551022 -0.415024 10.6103
RightArm  -19.8959 -1.08047 2.94447
RightForeArm  1.15537 0.432757 3.12794
RightHand  -1.83669 6.90078 -17.6315
LeftUpLeg  -0.286864 5.01159 2.20165
LeftLeg  5.2823 12.6757 -2.95178
LeftFoot  -4.30347 -0.00802558 0.552103
LeftToes  1.06249e-005 4.65856e-005 -8.18498e-006
